<svg version="1.1" xmlns="http://www.w3.org/2000/svg" style="display: block;" viewBox="0 0 1700 1300" width="425" height="325" preserveAspectRatio="none">
<defs>
	<linearGradient id="Gradient1" gradientUnits="userSpaceOnUse" x1="707.058" y1="352.692" x2="758.901" y2="409.642">
		<stop class="stop0" offset="0" stop-opacity="1" stop-color="rgb(176,178,178)"/>
		<stop class="stop1" offset="1" stop-opacity="1" stop-color="rgb(230,240,238)"/>
	</linearGradient>
	<linearGradient id="Gradient2" gradientUnits="userSpaceOnUse" x1="901.1" y1="374.981" x2="912.141" y2="343.561">
		<stop class="stop0" offset="0" stop-opacity="1" stop-color="rgb(19,27,28)"/>
		<stop class="stop1" offset="1" stop-opacity="1" stop-color="rgb(48,33,48)"/>
	</linearGradient>
	<linearGradient id="Gradient3" gradientUnits="userSpaceOnUse" x1="694.18" y1="950.201" x2="659.132" y2="949.449">
		<stop class="stop0" offset="0" stop-opacity="1" stop-color="rgb(10,13,21)"/>
		<stop class="stop1" offset="1" stop-opacity="1" stop-color="rgb(49,53,70)"/>
	</linearGradient>
	<linearGradient id="Gradient4" gradientUnits="userSpaceOnUse" x1="1274.34" y1="647.654" x2="1274.73" y2="662.955">
		<stop class="stop0" offset="0" stop-opacity="1" stop-color="rgb(44,30,25)"/>
		<stop class="stop1" offset="1" stop-opacity="1" stop-color="rgb(36,25,33)"/>
	</linearGradient>
	<linearGradient id="Gradient5" gradientUnits="userSpaceOnUse" x1="1172.58" y1="551.584" x2="1231.68" y2="601.631">
		<stop class="stop0" offset="0" stop-opacity="1" stop-color="rgb(138,114,105)"/>
		<stop class="stop1" offset="1" stop-opacity="1" stop-color="rgb(187,152,143)"/>
	</linearGradient>
	<linearGradient id="Gradient6" gradientUnits="userSpaceOnUse" x1="1208.78" y1="567.5" x2="1266.44" y2="518.248">
		<stop class="stop0" offset="0" stop-opacity="1" stop-color="rgb(81,43,33)"/>
		<stop class="stop1" offset="1" stop-opacity="1" stop-color="rgb(121,95,81)"/>
	</linearGradient>
</defs>
<path transform="translate(0,0)" fill="rgb(215,228,245)" d="M 0 0 L 1700 0 L 1700 1300 L 0 1300 L 0 0 z"/>
<path transform="translate(0,0)" fill="rgb(126,145,184)" d="M 1149.91 647.053 C 1145.69 637.354 1131.04 621.533 1124.36 611.739 C 1113.16 595.724 1105.99 575.467 1110.25 555.767 C 1122.93 497.197 1170.19 465.231 1229.28 477.671 C 1235.29 482.12 1238.95 484.952 1244.49 490.057 C 1250.12 495.81 1253.77 500.584 1258.7 506.931 C 1263.01 512.261 1287.1 540.764 1288.51 544.744 C 1295.64 557.059 1317.78 590.777 1329.59 597.913 C 1335.85 596.121 1342.97 592.802 1349.05 590.186 C 1365.85 582.072 1437.68 544.957 1450.77 545.167 C 1455.96 545.25 1461.05 552.525 1464.47 556.015 C 1465.22 560.781 1464.31 561.895 1460.98 565.658 C 1444.72 580.704 1395.24 598.858 1373.25 610.716 C 1366.36 614.435 1349.93 622.875 1342.92 626.274 C 1361.19 636.122 1370.83 644.706 1377.8 664.752 C 1379.14 667.646 1390.39 682.555 1393.44 687.095 C 1406.66 711.042 1442.69 751.376 1460.93 773.798 C 1479.59 796.741 1524.57 864.101 1547.72 877.893 C 1522.68 898.64 1498.13 919.109 1471.92 938.455 C 1439.1 962.675 1401.25 982.839 1364.62 1000.6 C 1271.84 1045.28 1172.98 1076.05 1071.23 1091.92 C 1045.6 1095.69 1010.66 1098.42 984.869 1100.42 C 919.366 1106.03 853.494 1105.8 788.031 1099.73 C 774.627 1098.48 761.37 1096.61 747.997 1095.15 C 733.065 1093.52 717.799 1092.59 702.942 1090.43 C 585.392 1074.34 471.335 1038.82 365.437 985.32 C 346.331 975.681 325.288 965.292 307.021 954.15 C 274.857 934.245 243.98 912.332 214.574 888.54 C 183.716 864.036 152.672 837.178 125.447 808.375 C 121.144 803.823 116.905 796.834 116.128 790.485 C 117.595 783.531 151.975 751.408 159.552 743.778 L 231.072 671.342 C 245.266 657.126 266.832 640.837 274.676 622.89 C 286.072 625.972 295.652 630.006 306.313 635.048 C 326.449 644.572 346.339 654.411 366.57 663.747 C 473.953 713.295 582.138 765.09 699.629 785.546 C 718.161 788.751 736.775 791.919 755.346 794.905 C 761.673 795.921 777.302 796.951 782.066 798.286 C 783.285 794.617 784.141 788.572 784.833 784.565 L 784.59 780.618 C 739.282 771.874 693.393 764.581 648.97 752.302 C 560.532 727.857 474.372 696.7 391.445 657.365 C 355.004 640.08 321.397 624.823 286.477 603.815 C 308.831 591.478 342.559 552.115 360.502 540.882 C 363.543 538.979 416.805 564.416 427.54 569.099 C 480.67 592.191 535.01 612.393 590.323 629.616 C 669.986 653.817 752.297 667.813 834.191 682.128 C 869.99 688.385 906.591 691.932 942.623 696.385 C 966.082 699.285 989.615 701.231 1013.25 701.95 C 1029.43 702.442 1045.17 699.922 1061.22 698.842 C 1063.69 697.85 1079.32 695.389 1083.34 694.269 C 1095.23 690.951 1104.69 686.673 1115.81 681.52 C 1130.11 674.285 1143.22 661.733 1149.91 647.053 z"/>
<path transform="translate(0,0)" fill="rgb(112,92,130)" d="M 1149.91 647.053 C 1145.69 637.354 1131.04 621.533 1124.36 611.739 C 1113.16 595.724 1105.99 575.467 1110.25 555.767 C 1122.93 497.197 1170.19 465.231 1229.28 477.671 C 1235.29 482.12 1238.95 484.952 1244.49 490.057 C 1250.12 495.81 1253.77 500.584 1258.7 506.931 C 1263.01 512.261 1287.1 540.764 1288.51 544.744 C 1295.64 557.059 1317.78 590.777 1329.59 597.913 C 1335.85 596.121 1342.97 592.802 1349.05 590.186 C 1365.85 582.072 1437.68 544.957 1450.77 545.167 C 1455.96 545.25 1461.05 552.525 1464.47 556.015 C 1465.22 560.781 1464.31 561.895 1460.98 565.658 C 1444.72 580.704 1395.24 598.858 1373.25 610.716 C 1366.36 614.435 1349.93 622.875 1342.92 626.274 C 1361.19 636.122 1370.83 644.706 1377.8 664.752 C 1379.14 667.646 1390.39 682.555 1393.44 687.095 C 1385.62 708.769 1375.1 729.368 1362.13 748.407 C 1350.33 764.294 1339.92 774.861 1322.75 784.73 C 1316.63 786.323 1311.66 789.981 1301.83 792.299 C 1284.95 788.489 1268.93 776.785 1251.56 770.979 C 1258.2 766.029 1260.7 758.572 1259.67 749.983 C 1259.28 746.773 1252.74 742.924 1249.89 741.205 C 1253.78 745.965 1261.2 752.639 1256.4 758.214 C 1252.94 757.631 1252.42 752.966 1249.64 751.394 C 1245.33 748.956 1241.73 749.524 1236.89 746.721 C 1237.21 744.993 1244.25 739.728 1246.2 738.108 L 1245.8 736.481 C 1241.84 739.257 1238.96 741.302 1235.32 744.463 C 1227.45 752.632 1215.27 765.269 1206.11 771.816 C 1176.59 792.9 1136.46 810.622 1099.73 811.422 C 1069.15 812.089 1048.29 800.52 1018.97 796.727 C 977.091 791.31 935.468 793.351 893.496 790.934 C 884.804 790.434 873.417 789.691 865.079 789.236 C 854.402 788.652 824.414 783.834 816.421 785.413 C 813.816 780.781 812.129 777.72 810.094 772.838 C 814.046 764.023 821.111 756.963 827.521 749.562 C 827.958 745.118 827.994 743.109 825.01 739.266 C 822.309 735.744 818.252 733.519 813.831 733.135 C 796.992 731.678 795.679 746.899 802.303 758.889 C 799.786 770.251 796.175 780.754 793.893 790.893 C 791.712 787.528 788.846 785.252 784.833 784.565 L 784.59 780.618 C 739.282 771.874 693.393 764.581 648.97 752.302 C 560.532 727.857 474.372 696.7 391.445 657.365 C 355.004 640.08 321.397 624.823 286.477 603.815 C 308.831 591.478 342.559 552.115 360.502 540.882 C 363.543 538.979 416.805 564.416 427.54 569.099 C 480.67 592.191 535.01 612.393 590.323 629.616 C 669.986 653.817 752.297 667.813 834.191 682.128 C 869.99 688.385 906.591 691.932 942.623 696.385 C 966.082 699.285 989.615 701.231 1013.25 701.95 C 1029.43 702.442 1045.17 699.922 1061.22 698.842 C 1063.69 697.85 1079.32 695.389 1083.34 694.269 C 1095.23 690.951 1104.69 686.673 1115.81 681.52 C 1130.11 674.285 1143.22 661.733 1149.91 647.053 z"/>
<path transform="translate(0,0)" fill="rgb(128,55,81)" d="M 1149.91 647.053 C 1145.69 637.354 1131.04 621.533 1124.36 611.739 C 1113.16 595.724 1105.99 575.467 1110.25 555.767 C 1122.93 497.197 1170.19 465.231 1229.28 477.671 C 1235.29 482.12 1238.95 484.952 1244.49 490.057 C 1250.12 495.81 1253.77 500.584 1258.7 506.931 C 1263.01 512.261 1287.1 540.764 1288.51 544.744 C 1295.64 557.059 1317.78 590.777 1329.59 597.913 C 1335.85 596.121 1342.97 592.802 1349.05 590.186 C 1365.85 582.072 1437.68 544.957 1450.77 545.167 C 1455.96 545.25 1461.05 552.525 1464.47 556.015 C 1465.22 560.781 1464.31 561.895 1460.98 565.658 C 1444.72 580.704 1395.24 598.858 1373.25 610.716 C 1366.36 614.435 1349.93 622.875 1342.92 626.274 C 1361.19 636.122 1370.83 644.706 1377.8 664.752 C 1379.14 667.646 1390.39 682.555 1393.44 687.095 C 1385.62 708.769 1375.1 729.368 1362.13 748.407 C 1350.33 764.294 1339.92 774.861 1322.75 784.73 C 1316.63 786.323 1311.66 789.981 1301.83 792.299 C 1284.95 788.489 1268.93 776.785 1251.56 770.979 C 1258.2 766.029 1260.7 758.572 1259.67 749.983 C 1259.28 746.773 1252.74 742.924 1249.89 741.205 C 1253.78 745.965 1261.2 752.639 1256.4 758.214 C 1252.94 757.631 1252.42 752.966 1249.64 751.394 C 1245.33 748.956 1241.73 749.524 1236.89 746.721 C 1237.21 744.993 1244.25 739.728 1246.2 738.108 L 1245.8 736.481 C 1241.84 739.257 1238.96 741.302 1235.32 744.463 L 1233.96 742.419 C 1227.24 741.299 1224.19 738.481 1220.25 733.4 C 1218.59 725.024 1218.67 716.006 1218.44 707.429 C 1210.39 700.422 1194.94 670.872 1186.91 671.027 C 1157.67 671.59 1136.8 716.553 1113.32 724.774 C 1104.01 728.033 1061.06 724.754 1048.6 727.575 C 1046.22 728.113 1045.61 730.484 1043.46 730.288 C 1025.78 727.279 1013.03 725.108 994.976 725.162 C 979.445 711.534 946.916 714.941 930.69 700.869 C 926.353 697.107 920.716 696.151 915.071 694.674 C 937.083 698.187 1046.73 710.846 1061.22 698.842 C 1063.69 697.85 1079.32 695.389 1083.34 694.269 C 1095.23 690.951 1104.69 686.673 1115.81 681.52 C 1130.11 674.285 1143.22 661.733 1149.91 647.053 z"/>
<path transform="translate(0,0)" fill="rgb(222,180,152)" d="M 1377.8 664.752 C 1379.14 667.646 1390.39 682.555 1393.44 687.095 C 1385.62 708.769 1375.1 729.368 1362.13 748.407 C 1350.33 764.294 1339.92 774.861 1322.75 784.73 C 1316.63 786.323 1311.66 789.981 1301.83 792.299 C 1284.95 788.489 1268.93 776.785 1251.56 770.979 C 1258.2 766.029 1260.7 758.572 1259.67 749.983 C 1259.28 746.773 1252.74 742.924 1249.89 741.205 C 1253.78 745.965 1261.2 752.639 1256.4 758.214 C 1252.94 757.631 1252.42 752.966 1249.64 751.394 C 1245.33 748.956 1241.73 749.524 1236.89 746.721 C 1237.21 744.993 1244.25 739.728 1246.2 738.108 L 1245.8 736.481 C 1251.56 730.69 1268.16 724.79 1276.17 721.923 C 1283.59 731.771 1294.56 759.595 1303.21 761.872 C 1333.89 769.945 1371.95 680.133 1377.8 664.752 z"/>
<path transform="translate(0,0)" fill="rgb(215,228,245)" d="M 1349.05 590.186 C 1365.85 582.072 1437.68 544.957 1450.77 545.167 C 1455.96 545.25 1461.05 552.525 1464.47 556.015 C 1465.22 560.781 1464.31 561.895 1460.98 565.658 C 1444.72 580.704 1395.24 598.858 1373.25 610.716 C 1366.36 614.435 1349.93 622.875 1342.92 626.274 C 1333.56 629.486 1317.37 636.198 1308 630.404 C 1304.11 631.823 1298.11 635.129 1295.28 638.024 C 1285.62 648.322 1271.84 668.584 1261.84 644.21 C 1262.15 618.888 1274.98 630.286 1287.57 627.997 C 1299.55 625.817 1319.67 614.376 1330.98 608.498 C 1329.37 603.686 1329.1 602.974 1329.59 597.913 C 1335.85 596.121 1342.97 592.802 1349.05 590.186 z"/>
<path transform="translate(0,0)" fill="rgb(2,1,2)" d="M 1349.05 590.186 C 1365.85 582.072 1437.68 544.957 1450.77 545.167 C 1455.96 545.25 1461.05 552.525 1464.47 556.015 C 1465.22 560.781 1464.31 561.895 1460.98 565.658 C 1444.72 580.704 1395.24 598.858 1373.25 610.716 C 1366.36 614.435 1349.93 622.875 1342.92 626.274 C 1333.56 629.486 1317.37 636.198 1308 630.404 C 1332.14 618.517 1444.36 572.083 1455.25 558.128 C 1456.36 556.706 1456.21 556.639 1456 554.866 C 1453.6 553.615 1449.3 552.315 1446.7 553.429 C 1434.99 558.45 1423.54 564.324 1412.09 569.961 C 1391.9 580.026 1371.48 589.638 1350.86 598.789 C 1349.8 598.124 1348.91 597.211 1347.97 596.359 C 1347.32 592.765 1347.31 594.208 1349.05 590.186 z"/>
<path transform="translate(0,0)" fill="rgb(41,39,41)" d="M 1349.05 590.186 C 1347.31 594.208 1347.32 592.765 1347.97 596.359 C 1348.91 597.211 1349.8 598.124 1350.86 598.789 L 1330.98 608.498 C 1329.37 603.686 1329.1 602.974 1329.59 597.913 C 1335.85 596.121 1342.97 592.802 1349.05 590.186 z"/>
<path transform="translate(0,0)" fill="rgb(164,152,145)" d="M 1244.49 490.057 C 1250.12 495.81 1253.77 500.584 1258.7 506.931 C 1263.01 512.261 1287.1 540.764 1288.51 544.744 C 1280.86 557.563 1273.43 568.214 1259.93 575.871 C 1256.89 579.172 1258.46 578.214 1253.86 579.307 C 1236.94 575.383 1198.9 552.172 1183.83 542.649 C 1184.79 541.519 1186.9 539.854 1188.12 538.822 C 1201.59 531.827 1246.52 514.374 1237.04 494.735 L 1238.37 494.549 C 1240.91 492.161 1241.43 491.686 1244.49 490.057 z"/>
<path transform="translate(0,0)" fill="url(#Gradient6)" d="M 1244.49 490.057 C 1250.12 495.81 1253.77 500.584 1258.7 506.931 C 1257.57 507.97 1256.76 509.16 1255.21 509.356 C 1248.54 510.197 1205.83 537.203 1199.02 542.842 C 1213.99 557.946 1240.33 566.696 1259.93 575.871 C 1256.89 579.172 1258.46 578.214 1253.86 579.307 C 1236.94 575.383 1198.9 552.172 1183.83 542.649 C 1184.79 541.519 1186.9 539.854 1188.12 538.822 C 1201.59 531.827 1246.52 514.374 1237.04 494.735 L 1238.37 494.549 C 1240.91 492.161 1241.43 491.686 1244.49 490.057 z"/>
<path transform="translate(0,0)" fill="url(#Gradient5)" d="M 1253.86 579.307 L 1253.08 581.023 C 1234.53 594.004 1178.4 588.216 1156.54 585.376 L 1156.88 584.877 C 1159.52 584.931 1162.15 584.938 1164.78 584.898 C 1168.28 581.482 1171.83 560.698 1174.31 554.67 C 1176.02 550.522 1177.21 547.881 1179.4 543.71 C 1176.71 543.42 1171.86 548.313 1164.7 550.067 C 1170.99 545.146 1175.83 539.936 1183.83 542.649 C 1198.9 552.172 1236.94 575.383 1253.86 579.307 z"/>
<path transform="translate(0,0)" fill="rgb(139,109,101)" d="M 1188.12 538.822 C 1179.14 525.609 1221.39 493.143 1237.04 494.735 C 1246.52 514.374 1201.59 531.827 1188.12 538.822 z"/>
<path transform="translate(0,0)" fill="url(#Gradient4)" d="M 1261.84 644.21 C 1271.84 668.584 1285.62 648.322 1295.28 638.024 C 1296.94 648.332 1293.1 654.556 1288.63 663.802 C 1275.21 665.325 1260.64 666.38 1256.26 648.532 C 1256 647.474 1256.66 645.538 1257.05 644.485 C 1258.02 643.904 1258.64 643.554 1259.56 642.88 L 1259.55 639.72 L 1260.19 639.483 C 1262.02 641.435 1260.91 641.407 1261.84 644.21 z"/>
<path transform="translate(0,0)" fill="rgb(82,56,76)" d="M 784.59 780.618 C 790.519 764.535 787.542 758.183 788.225 741.846 C 788.832 727.312 805.475 723.323 817.34 725.269 C 826.658 726.798 830.141 730.988 835.706 738.259 C 834.097 741.776 833.349 744.15 830.294 746.611 L 829.974 746.331 L 828.664 749.159 L 827.521 749.562 C 827.958 745.118 827.994 743.109 825.01 739.266 C 822.309 735.744 818.252 733.519 813.831 733.135 C 796.992 731.678 795.679 746.899 802.303 758.889 C 799.786 770.251 796.175 780.754 793.893 790.893 C 791.712 787.528 788.846 785.252 784.833 784.565 L 784.59 780.618 z"/>
<path transform="translate(0,0)" fill="rgb(228,212,226)" d="M 1245.8 736.481 L 1246.2 738.108 C 1244.25 739.728 1237.21 744.993 1236.89 746.721 C 1241.73 749.524 1245.33 748.956 1249.64 751.394 C 1252.42 752.966 1252.94 757.631 1256.4 758.214 C 1261.2 752.639 1253.78 745.965 1249.89 741.205 C 1252.74 742.924 1259.28 746.773 1259.67 749.983 C 1260.7 758.572 1258.2 766.029 1251.56 770.979 C 1232.18 772.116 1205.91 799.342 1189.1 810.429 C 1177.07 818.489 1163.68 824.328 1149.59 827.67 C 1121.59 834.053 1094.39 830.43 1066.78 823.664 C 1052.03 820.155 1037.08 815.028 1021.81 814.397 C 973.357 812.395 923.579 816.051 875.445 809.049 C 863.207 807.269 817.44 807.211 811.293 802.194 L 816.421 785.413 C 824.414 783.834 854.402 788.652 865.079 789.236 C 873.417 789.691 884.804 790.434 893.496 790.934 C 935.468 793.351 977.091 791.31 1018.97 796.727 C 1048.29 800.52 1069.15 812.089 1099.73 811.422 C 1136.46 810.622 1176.59 792.9 1206.11 771.816 C 1215.27 765.269 1227.45 752.632 1235.32 744.463 C 1238.96 741.302 1241.84 739.257 1245.8 736.481 z"/>
<path transform="translate(0,0)" fill="rgb(218,218,219)" d="M 802.303 758.889 C 795.679 746.899 796.992 731.678 813.831 733.135 C 818.252 733.519 822.309 735.744 825.01 739.266 C 827.994 743.109 827.958 745.118 827.521 749.562 C 821.111 756.963 814.046 764.023 810.094 772.838 C 812.129 777.72 813.816 780.781 816.421 785.413 L 811.293 802.194 C 810.215 805.116 808.056 810.529 807.464 813.379 C 799.787 833.78 793.697 860.8 787.372 882.175 C 781.216 902.976 765.129 904.347 757.65 885.99 C 758.285 869.038 765.842 853.739 770.646 837.846 C 774.422 825.35 778.007 813.111 781.971 800.642 L 782.066 798.286 C 783.285 794.617 784.141 788.572 784.833 784.565 C 788.846 785.252 791.712 787.528 793.893 790.893 C 796.175 780.754 799.786 770.251 802.303 758.889 z"/>
<path transform="translate(0,0)" fill="rgb(2,1,2)" d="M 802.464 800.299 C 806.182 802.394 807.372 809.283 807.464 813.379 C 799.787 833.78 793.697 860.8 787.372 882.175 C 781.216 902.976 765.129 904.347 757.65 885.99 C 758.285 869.038 765.842 853.739 770.646 837.846 C 774.422 825.35 778.007 813.111 781.971 800.642 C 785.443 802.91 786.718 803.453 788.531 807.323 C 783.156 823.234 779.064 839.566 774.061 855.582 C 772.356 861.04 761.617 887.423 771.939 889.45 C 778.584 884.129 798.656 812.939 802.464 800.299 z"/>
<path transform="translate(0,0)" fill="rgb(41,39,41)" d="M 810.094 772.838 C 812.129 777.72 813.816 780.781 816.421 785.413 L 811.293 802.194 C 810.215 805.116 808.056 810.529 807.464 813.379 C 807.372 809.283 806.182 802.394 802.464 800.299 C 804.683 790.884 807.33 782.111 810.094 772.838 z"/>
<path transform="translate(0,0)" fill="rgb(41,39,41)" d="M 784.833 784.565 C 788.846 785.252 791.712 787.528 793.893 790.893 L 788.531 807.323 C 786.718 803.453 785.443 802.91 781.971 800.642 L 782.066 798.286 C 783.285 794.617 784.141 788.572 784.833 784.565 z"/>
<path transform="translate(0,0)" fill="rgb(112,92,130)" d="M 1362.13 748.407 C 1359.7 761.149 1336.15 786.572 1322.75 784.73 C 1339.92 774.861 1350.33 764.294 1362.13 748.407 z"/>
<path transform="translate(0,0)" fill="rgb(2,1,2)" d="M 666.095 994.914 C 665.146 994.724 661.456 993.931 661.276 992.788 C 657.051 966.006 663.73 933.715 657.511 907.642 C 674.845 909.706 688.541 907.589 705.377 908.419 C 708.906 908.82 711.289 908.953 713.515 911.937 C 718.978 919.261 721.033 934.429 722.847 943.652 C 724.814 935.141 727.897 915.591 736.001 910.231 C 742.716 905.791 756.164 909.301 763.875 909.096 C 784.875 908.233 812.428 903.044 824.405 925.543 C 827.052 930.516 828.57 936.694 829.8 942.264 C 825.716 944.299 811.049 951.01 809.163 953.998 C 813.78 957.553 824.647 953.908 828.108 959.509 C 828.178 980.769 811.137 996.039 790.192 995.972 C 780.212 996.006 770.632 992.042 763.595 984.964 C 755.425 976.707 752.511 967.075 750.043 956.123 C 746.582 967.442 743.033 983.417 739.498 993.422 C 708.135 998.135 709.491 995.826 698.347 966.974 C 695.65 970.273 695.7 980.85 695.079 986.184 C 690.802 986.209 685.33 986.689 680.965 986.944 L 673.869 987.206 C 669.379 989.026 669.487 988.248 666.714 991.625 L 666.095 994.914 z"/>
<path transform="translate(0,0)" fill="url(#Gradient3)" d="M 666.095 994.914 C 665.146 994.724 661.456 993.931 661.276 992.788 C 657.051 966.006 663.73 933.715 657.511 907.642 C 674.845 909.706 688.541 907.589 705.377 908.419 L 697.531 910.127 L 697.676 911.629 C 700.077 913.586 700.406 913.892 703.47 914.035 L 704.351 915.752 C 700.285 915.964 697.529 915.589 694.571 918.158 C 692.682 923.513 695.313 928.335 697.221 934.336 C 693.278 930.081 692.553 925.515 690.93 919.943 L 689.138 920.067 C 686.689 919.077 686.04 918.425 683.913 916.797 C 683.861 923.464 683.289 938.902 683.808 944.868 C 683.974 947.858 684.054 951.84 684.608 954.702 L 684.906 953.197 C 690.982 954.788 693.432 951.135 695.827 960.406 C 696.332 962.361 697.648 964.817 698.347 966.974 C 695.65 970.273 695.7 980.85 695.079 986.184 C 690.802 986.209 685.33 986.689 680.965 986.944 L 673.869 987.206 C 669.379 989.026 669.487 988.248 666.714 991.625 L 666.095 994.914 z"/>
<path transform="translate(0,0)" fill="rgb(215,228,245)" d="M 673.869 987.206 C 671.946 979.264 671.775 922.745 674.292 916.806 C 677.38 915.468 680.433 916.327 683.913 916.797 C 683.861 923.464 683.289 938.902 683.808 944.868 C 683.974 947.858 684.054 951.84 684.608 954.702 L 684.906 953.197 C 690.982 954.788 693.432 951.135 695.827 960.406 C 696.332 962.361 697.648 964.817 698.347 966.974 C 695.65 970.273 695.7 980.85 695.079 986.184 C 690.802 986.209 685.33 986.689 680.965 986.944 L 673.869 987.206 z"/>
<path transform="translate(0,0)" fill="rgb(41,48,51)" d="M 683.808 944.868 C 683.974 947.858 684.054 951.84 684.608 954.702 L 684.906 953.197 C 690.982 954.788 693.432 951.135 695.827 960.406 C 696.332 962.361 697.648 964.817 698.347 966.974 C 695.65 970.273 695.7 980.85 695.079 986.184 C 690.802 986.209 685.33 986.689 680.965 986.944 C 684.788 981.635 682.797 954.971 683.808 944.868 z"/>
<path transform="translate(0,0)" fill="rgb(215,228,245)" d="M 722.706 968.04 C 725.867 958.642 739.085 900.518 753.887 919.582 C 750.013 932.205 734.615 980.42 725.044 985.988 C 723.778 986.725 722.428 986.989 720.992 987.155 C 717.486 985.898 716.482 985.156 714.728 981.044 C 708.257 965.872 703.269 949.7 697.221 934.336 C 695.313 928.335 692.682 923.513 694.571 918.158 C 697.529 915.589 700.285 915.964 704.351 915.752 C 708.083 923.456 720.528 959.3 722.706 968.04 z"/>
<path transform="translate(0,0)" fill="rgb(41,39,41)" d="M 683.913 916.797 C 686.04 918.425 686.689 919.077 689.138 920.067 L 689.142 921.3 C 689.223 930.465 692.042 933.295 686.165 943.295 C 684.895 945.455 684.929 950.521 684.906 953.197 L 684.608 954.702 C 684.054 951.84 683.974 947.858 683.808 944.868 C 683.289 938.902 683.861 923.464 683.913 916.797 z"/>
<path transform="translate(0,0)" fill="rgb(215,228,245)" d="M 785.751 916.156 C 791.475 915.808 796.079 915.466 801.574 917.508 C 808.988 920.263 819.93 928.58 816.19 937.707 C 805.05 944.373 794.41 917.94 780.436 930.073 C 766.051 942.565 768.887 974.213 791.128 974.988 C 796.359 975.17 801.854 968.703 805.394 965.155 C 807.346 962.538 810.523 960.653 813.853 961.017 C 816.814 962.792 815.876 961.757 817.329 964.996 C 816.944 984.612 787.085 991.742 774.916 982.962 C 748.329 963.78 753.291 925.317 785.751 916.156 z"/>
<path transform="translate(0,0)" fill="rgb(174,175,190)" d="M 786.636 936.205 C 791.732 937.146 793.597 939.766 797.169 943.417 C 796.607 951.975 795.856 957.049 792.57 964.953 C 791.044 966.156 790.861 966.06 788.969 966.635 L 786.746 965.317 C 782.919 958.631 785.414 943.948 786.636 936.205 z"/>
<path transform="translate(0,0)" fill="rgb(2,1,2)" d="M 680.965 986.944 C 685.33 986.689 690.802 986.209 695.079 986.184 C 689.693 997.751 677.205 995.179 666.095 994.914 L 666.714 991.625 C 669.487 988.248 669.379 989.026 673.869 987.206 L 680.965 986.944 z"/>
<path transform="translate(0,0)" fill="rgb(128,55,81)" d="M 386.289 506.509 C 420.687 483.672 439.579 459.623 468.42 431.853 C 489.227 411.82 508.929 392.523 529.473 372.084 C 583.103 318.926 637.325 266.369 692.129 214.423 C 709.197 197.933 725.827 181.291 743.268 165.228 C 770.61 140.046 783.464 124.329 823.266 124.777 C 862.725 125.221 904.812 121.407 944.04 126.559 C 955.622 128.08 976.38 155.432 984.211 164.9 C 998.665 182.22 1012.81 199.797 1026.64 217.621 C 1050.63 248.144 1071.35 270.737 1091.71 304.334 C 1099.03 313.754 1105.81 322.469 1113.68 331.485 C 1119.58 338.183 1136.96 357.013 1139.45 364.258 C 1147.06 375.229 1155.38 385.592 1165.31 394.563 C 1176.26 402.671 1193.51 431.941 1197.91 434.764 C 1200.39 435.983 1202.08 436.587 1204 438.557 C 1207.81 458.275 1224.04 459.607 1229.09 476.959 L 1229.28 477.671 C 1170.19 465.231 1122.93 497.197 1110.25 555.767 C 1105.99 575.467 1113.16 595.724 1124.36 611.739 C 1131.04 621.533 1145.69 637.354 1149.91 647.053 C 1143.22 661.733 1130.11 674.285 1115.81 681.52 C 1122.69 671.175 1144 662.114 1145.79 648.216 C 1146.62 641.858 1141.02 636.403 1137.04 631.992 C 1132.5 632.122 1127.96 632.287 1123.42 632.484 C 1091.78 633.997 1103.27 645.979 1096.85 653.057 C 1089.34 666.822 1078.8 671.942 1063.91 676.326 C 1051.11 680.106 1037.89 682.299 1024.55 682.856 C 1014.29 683.267 1003.77 682.582 993.577 682.056 C 933.001 678.927 872.997 672.886 814.027 658.194 C 810.827 657.397 807.859 657.01 804.671 655.875 C 789.527 653.276 767.466 650.203 753.139 646.379 C 749.58 645.778 746.187 644.988 742.685 644.135 C 708.099 635.709 669.806 630.614 636.251 618.456 C 625.302 617.136 597.841 607.087 586.584 603.393 C 537.806 587.388 488.612 569.345 441.723 548.323 C 415.507 542.75 393.917 533.132 370.235 520.623 C 375.32 520.853 391.847 522.046 395.747 521.178 L 397.011 518.561 C 392.443 515.139 389.708 511.021 386.289 506.509 z"/>
<path transform="translate(0,0)" fill="rgb(126,145,184)" d="M 1091.71 304.334 C 1099.03 313.754 1105.81 322.469 1113.68 331.485 C 1119.58 338.183 1136.96 357.013 1139.45 364.258 C 1147.06 375.229 1155.38 385.592 1165.31 394.563 C 1176.26 402.671 1193.51 431.941 1197.91 434.764 C 1200.39 435.983 1202.08 436.587 1204 438.557 C 1207.81 458.275 1224.04 459.607 1229.09 476.959 L 1229.28 477.671 C 1170.19 465.231 1122.93 497.197 1110.25 555.767 C 1105.99 575.467 1113.16 595.724 1124.36 611.739 C 1131.04 621.533 1145.69 637.354 1149.91 647.053 C 1143.22 661.733 1130.11 674.285 1115.81 681.52 C 1122.69 671.175 1144 662.114 1145.79 648.216 C 1146.62 641.858 1141.02 636.403 1137.04 631.992 C 1132.5 632.122 1127.96 632.287 1123.42 632.484 C 1091.78 633.997 1103.27 645.979 1096.85 653.057 C 1089.34 666.822 1078.8 671.942 1063.91 676.326 C 1051.11 680.106 1037.89 682.299 1024.55 682.856 C 1014.29 683.267 1003.77 682.582 993.577 682.056 C 933.001 678.927 872.997 672.886 814.027 658.194 C 810.827 657.397 807.859 657.01 804.671 655.875 C 817.637 655.897 826.455 651.298 837.28 652.375 C 867.927 655.425 898.024 662.02 928.938 663.394 C 936.189 663.716 948.45 664.721 955.525 664.008 C 981.943 664.547 1004.2 664.84 1030.74 663.764 C 1039.67 664.497 1073.74 660.118 1081.85 654.927 C 1092.43 645.569 1069.83 614.077 1066.28 604.343 C 1042.83 540.07 1058.97 464.189 1071.33 399.197 C 1075.61 382.387 1079.34 364.747 1083.53 347.731 C 1087.69 336.745 1089.91 327.123 1090.27 315.38 C 1090.4 311.086 1090 308.387 1091.71 304.334 z"/>
<path transform="translate(0,0)" fill="rgb(222,180,152)" d="M 1197.91 434.764 C 1200.39 435.983 1202.08 436.587 1204 438.557 C 1207.81 458.275 1224.04 459.607 1229.09 476.959 L 1229.28 477.671 C 1170.19 465.231 1122.93 497.197 1110.25 555.767 C 1105.99 575.467 1113.16 595.724 1124.36 611.739 C 1131.04 621.533 1145.69 637.354 1149.91 647.053 C 1143.22 661.733 1130.11 674.285 1115.81 681.52 C 1122.69 671.175 1144 662.114 1145.79 648.216 C 1146.62 641.858 1141.02 636.403 1137.04 631.992 C 1132.5 632.122 1127.96 632.287 1123.42 632.484 C 1091.78 633.997 1103.27 645.979 1096.85 653.057 C 1096.39 650.089 1097.49 644.863 1096.2 641.81 C 1082.88 610.301 1072.66 596.812 1074.57 560.46 C 1071.92 525.143 1079.59 525.515 1087.5 495.34 C 1083.49 494.503 1073.18 493.24 1071.45 490.67 L 1072.86 489.619 C 1089.47 487.609 1102.29 475.78 1115.42 465.765 C 1147.41 446.235 1158.11 439.266 1197.91 434.764 z"/>
<path transform="translate(0,0)" fill="rgb(127,118,134)" d="M 1072.86 489.619 C 1089.47 487.609 1102.29 475.78 1115.42 465.765 L 1118.23 466.933 C 1118.18 469.43 1116.48 470.527 1115.44 472.675 C 1093.31 498.55 1077.05 525.176 1074.57 560.46 C 1071.92 525.143 1079.59 525.515 1087.5 495.34 C 1083.49 494.503 1073.18 493.24 1071.45 490.67 L 1072.86 489.619 z"/>
<path transform="translate(0,0)" fill="rgb(128,55,81)" d="M 1197.91 434.764 C 1200.39 435.983 1202.08 436.587 1204 438.557 C 1200.66 439.669 1198.65 439.414 1195.24 439.583 C 1166.04 441.028 1136.98 453.232 1115.44 472.675 C 1116.48 470.527 1118.18 469.43 1118.23 466.933 L 1115.42 465.765 C 1147.41 446.235 1158.11 439.266 1197.91 434.764 z"/>
<path transform="translate(0,0)" fill="rgb(201,131,133)" d="M 1113.68 331.485 C 1119.58 338.183 1136.96 357.013 1139.45 364.258 C 1147.06 375.229 1155.38 385.592 1165.31 394.563 C 1176.26 402.671 1193.51 431.941 1197.91 434.764 C 1158.11 439.266 1147.41 446.235 1115.42 465.765 C 1102.29 475.78 1089.47 487.609 1072.86 489.619 C 1073.45 486.931 1073.66 482.347 1073.81 479.509 C 1075.19 462.305 1082.1 443.274 1086.49 426.691 C 1090.97 409.78 1104.32 340.616 1113.68 331.485 z"/>
<path transform="translate(0,0)" fill="rgb(128,55,81)" d="M 1165.31 394.563 C 1154.02 400.228 1128.91 422.285 1120.99 421.114 C 1118.62 415.873 1124.87 402.961 1125.91 396.924 C 1127.94 385.24 1128.46 371.191 1139.45 364.258 C 1147.06 375.229 1155.38 385.592 1165.31 394.563 z"/>
<path transform="translate(0,0)" fill="rgb(127,118,134)" d="M 397.011 518.561 C 405.801 519.921 436.975 539.917 441.723 548.323 C 415.507 542.75 393.917 533.132 370.235 520.623 C 375.32 520.853 391.847 522.046 395.747 521.178 L 397.011 518.561 z"/>
<path transform="translate(0,0)" fill="rgb(82,56,76)" d="M 636.251 618.456 L 637.663 617.343 C 646.837 618.691 659.235 622.811 669.071 624.982 L 669.738 624.392 C 666.396 622.301 663.383 621.623 659.616 620.513 C 687.072 623.839 712.675 630.332 738.455 640.116 C 744.002 642.222 749.201 642.141 753.139 646.379 C 749.58 645.778 746.187 644.988 742.685 644.135 C 708.099 635.709 669.806 630.614 636.251 618.456 z"/>
<path transform="translate(0,0)" fill="rgb(59,28,68)" d="M 955.525 664.008 C 968.36 659.72 1014.82 661.489 1030.05 662.432 L 1030.74 663.764 C 1004.2 664.84 981.943 664.547 955.525 664.008 z"/>
<path transform="translate(0,0)" fill="rgb(59,28,68)" d="M 1071.33 399.197 C 1070.84 388.428 1074.39 353.764 1083.53 347.731 C 1079.34 364.747 1075.61 382.387 1071.33 399.197 z"/>
<path transform="translate(0,0)" fill="rgb(2,1,2)" d="M 799.514 341.741 C 801.891 351.711 805.07 347.422 809.187 352.261 L 820.077 357.715 C 824.593 355.793 831.233 352.918 835.888 351.963 C 839.484 351.245 865.63 351.106 872.902 350.613 C 882.466 349.91 943.106 350.434 950.014 352.424 C 953.747 356.25 954.165 357.832 954.1 363.059 L 953.984 372.48 C 952.855 374.126 949.38 379.235 947.944 379.982 C 936.743 385.816 931.177 380.533 930.922 395.336 C 930.963 402.272 931.274 412.223 930.831 418.937 C 920.702 418.613 910.632 415.687 902.126 415.313 C 872.578 414.014 862.722 421.146 842.028 395.175 C 840.109 404.237 839.975 407.591 834.034 414.698 C 830.598 414.252 825.881 413.171 823.32 410.785 L 819.026 410.629 C 819.121 410.879 812.235 398.869 811.343 397.106 C 811.144 396.29 809.195 391.784 808.755 390.716 C 805.959 382.931 797.74 362.197 799.482 354.957 L 798.619 355.176 C 795.491 349.156 796.871 347.543 799.514 341.741 z"/>
<path transform="translate(0,0)" fill="rgb(215,228,245)" d="M 872.902 350.613 C 882.466 349.91 943.106 350.434 950.014 352.424 C 953.747 356.25 954.165 357.832 954.1 363.059 L 953.984 372.48 C 952.855 374.126 949.38 379.235 947.944 379.982 C 936.743 385.816 931.177 380.533 930.922 395.336 C 930.419 392.384 929.946 389.983 929.24 387.073 C 926.573 384.152 927.92 385.038 924.053 383.805 C 923.978 389.813 924.181 402.217 922.836 407.456 C 919.242 410.807 913.237 408.711 910.982 405.052 C 909.256 402.249 910.26 393.63 910.464 390.158 C 909.794 386.25 907.084 380.35 902.684 380.086 L 901.142 382.163 C 901.15 381.299 901.118 380.435 901.047 379.574 C 899.921 364.329 886.238 356.437 871.92 357.413 L 872.902 350.613 z"/>
<path transform="translate(0,0)" fill="url(#Gradient2)" d="M 872.902 350.613 C 882.466 349.91 943.106 350.434 950.014 352.424 C 944.233 354.002 943.808 356.557 939.24 358.358 C 931.121 359.294 918.867 359.165 910.4 359.051 C 910.562 368.983 911.002 380.368 910.464 390.158 C 909.794 386.25 907.084 380.35 902.684 380.086 L 901.142 382.163 C 901.15 381.299 901.118 380.435 901.047 379.574 C 899.921 364.329 886.238 356.437 871.92 357.413 L 872.902 350.613 z"/>
<path transform="translate(0,0)" fill="rgb(82,56,76)" d="M 950.014 352.424 C 953.747 356.25 954.165 357.832 954.1 363.059 L 953.984 372.48 C 952.855 374.126 949.38 379.235 947.944 379.982 C 936.743 385.816 931.177 380.533 930.922 395.336 C 930.419 392.384 929.946 389.983 929.24 387.073 C 926.573 384.152 927.92 385.038 924.053 383.805 C 923.866 381.163 924.145 379.752 924.488 377.109 C 927.304 372.261 935.328 370.129 940.975 366.841 C 942.89 363.812 942.587 365.108 942.777 361.664 C 941.69 359.669 941.145 359.523 939.24 358.358 C 943.808 356.557 944.233 354.002 950.014 352.424 z"/>
<path transform="translate(0,0)" fill="rgb(215,228,245)" d="M 799.514 341.741 C 801.891 351.711 805.07 347.422 809.187 352.261 L 820.077 357.715 C 824.593 355.793 831.233 352.918 835.888 351.963 C 840.797 359.858 841.372 354.778 847.083 358.276 C 845.476 369.39 831.946 402.647 823.32 410.785 L 819.026 410.629 C 819.121 410.879 812.235 398.869 811.343 397.106 C 811.144 396.29 809.195 391.784 808.755 390.716 C 805.959 382.931 797.74 362.197 799.482 354.957 L 798.619 355.176 C 795.491 349.156 796.871 347.543 799.514 341.741 z"/>
<path transform="translate(0,0)" fill="rgb(12,10,15)" d="M 799.514 341.741 C 801.891 351.711 805.07 347.422 809.187 352.261 L 820.077 357.715 C 824.593 355.793 831.233 352.918 835.888 351.963 C 840.797 359.858 841.372 354.778 847.083 358.276 C 843.017 358.036 838.954 357.453 835.989 360.409 C 828.042 368.329 826.587 379.69 819.945 389.948 C 817.826 377.193 816.772 370.701 808.203 360.603 C 804.654 357.601 803.835 356.739 799.482 354.957 L 798.619 355.176 C 795.491 349.156 796.871 347.543 799.514 341.741 z"/>
<path transform="translate(0,0)" fill="rgb(218,218,219)" d="M 871.92 357.413 C 886.238 356.437 899.921 364.329 901.047 379.574 C 901.118 380.435 901.15 381.299 901.142 382.163 C 898.086 389.114 877.669 385.279 870.178 389.718 C 868.463 392.457 868.795 391.169 869.225 394.615 C 876.032 403.743 892.018 391.139 899.295 386.702 C 894.204 409.697 888.38 410.174 866.632 407.66 C 846.183 395.1 847.917 365.867 871.92 357.413 z"/>
<path transform="translate(0,0)" fill="rgb(41,39,41)" d="M 874.636 367.732 C 878.764 368.404 883.796 368.86 885.969 372.892 C 884.628 375.779 885.285 374.809 881.767 376.514 C 877.452 377.034 870.771 378.648 869.618 373.331 C 871.099 370.129 871.707 369.951 874.636 367.732 z"/>
<path transform="translate(0,0)" fill="rgb(36,19,28)" d="M 769.411 341.175 C 769.81 338.428 770.056 334.103 772.567 332.621 C 782.109 326.991 797.569 329.251 799.514 341.741 C 796.871 347.543 795.491 349.156 798.619 355.176 L 799.482 354.957 C 797.74 362.197 805.959 382.931 808.755 390.716 C 809.195 391.784 811.144 396.29 811.343 397.106 C 809.462 401.204 809.091 404.489 807.492 407.889 C 805.068 403.914 804.736 403.84 801.138 402.739 C 800.222 408.548 799.268 412.372 796.275 417.559 C 771.047 417.909 737.861 415.467 713.477 419.247 C 711.73 416.68 711.544 410.995 713.417 408.484 C 715.021 408.159 716.697 407.776 718.309 407.554 C 724.905 409.542 761.867 408.735 768.457 407.015 L 767.581 399.784 L 766.974 398.295 C 770.298 385.949 765.898 354.894 769.411 341.175 z"/>
<path transform="translate(0,0)" fill="rgb(57,27,41)" d="M 769.411 341.175 C 769.81 338.428 770.056 334.103 772.567 332.621 C 782.109 326.991 797.569 329.251 799.514 341.741 C 796.871 347.543 795.491 349.156 798.619 355.176 C 796.131 357.435 797.238 357.012 794.168 357.643 C 791.574 356.042 790.908 352.848 789.751 349.776 L 786.011 352.51 C 788.788 354.223 788.783 354.755 790.192 357.892 L 790.991 358.828 L 777.663 359.05 C 777.439 369.083 777.025 379.725 777.336 389.701 L 775.548 393.578 L 774.441 393.932 C 770.814 395.114 769.631 395.386 766.974 398.295 C 770.298 385.949 765.898 354.894 769.411 341.175 z"/>
<path transform="translate(0,0)" fill="rgb(2,1,2)" d="M 769.411 341.175 C 769.81 338.428 770.056 334.103 772.567 332.621 C 782.109 326.991 797.569 329.251 799.514 341.741 C 796.871 347.543 795.491 349.156 798.619 355.176 C 796.131 357.435 797.238 357.012 794.168 357.643 C 791.574 356.042 790.908 352.848 789.751 349.776 L 786.011 352.51 L 782.23 353.266 C 779.161 352.835 780.43 353.466 778.231 351.432 C 778.09 348.397 778.334 346.696 776.639 344.204 L 776.588 344.992 L 775.988 345.409 L 775.326 339.109 C 773.923 340.835 773.423 341.152 771.723 342.462 L 769.411 341.175 z"/>
<path transform="translate(0,0)" fill="rgb(218,218,219)" d="M 776.639 344.204 C 777.004 341.785 777.095 338.189 779.492 337.536 C 790.694 334.484 791.334 342.887 789.751 349.776 L 786.011 352.51 L 782.23 353.266 C 779.161 352.835 780.43 353.466 778.231 351.432 C 778.09 348.397 778.334 346.696 776.639 344.204 z"/>
<path transform="translate(0,0)" fill="rgb(12,10,15)" d="M 782.23 353.266 L 786.011 352.51 C 788.788 354.223 788.783 354.755 790.192 357.892 C 786.689 358.03 779.43 358.602 776.616 356.746 L 777.344 354.809 C 779.233 354.331 780.432 353.915 782.23 353.266 z"/>
<path transform="translate(0,0)" fill="rgb(215,228,245)" d="M 777.663 359.05 L 790.991 358.828 C 790.865 375.427 790.972 392.411 789.941 408.955 C 786.027 408.793 781.774 408.824 778.017 407.836 C 777.28 407.571 770.096 407.213 768.457 407.015 L 767.581 399.784 L 766.974 398.295 C 769.631 395.386 770.814 395.114 774.441 393.932 L 775.548 393.578 L 777.336 389.701 C 777.025 379.725 777.439 369.083 777.663 359.05 z"/>
<path transform="translate(0,0)" fill="rgb(41,39,41)" d="M 777.336 389.701 L 778.017 407.836 C 777.28 407.571 770.096 407.213 768.457 407.015 L 767.581 399.784 L 766.974 398.295 C 769.631 395.386 770.814 395.114 774.441 393.932 L 775.548 393.578 L 777.336 389.701 z"/>
<path transform="translate(0,0)" fill="rgb(57,27,41)" d="M 808.755 390.716 C 809.195 391.784 811.144 396.29 811.343 397.106 C 809.462 401.204 809.091 404.489 807.492 407.889 C 805.068 403.914 804.736 403.84 801.138 402.739 C 801.83 398.475 800.761 396.419 802.765 391.647 C 805.807 389.735 804.502 390.21 808.755 390.716 z"/>
<path transform="translate(0,0)" fill="url(#Gradient1)" d="M 737.406 333.773 L 739.479 332.9 L 740.961 333.697 C 741.678 347.673 742.382 383.176 737.923 395.236 C 736.976 395.542 735.849 395.958 734.893 396.137 C 743.547 398.65 758.679 396.682 767.581 399.784 L 768.457 407.015 C 761.867 408.735 724.905 409.542 718.309 407.554 C 718.412 386.084 717.303 358.977 718.647 338.092 C 717.711 337.63 717.921 337.514 717.17 336.401 L 718.142 335.213 C 722.943 333.763 732.072 333.909 737.406 333.773 z"/>
<path transform="translate(0,0)" fill="rgb(2,1,2)" d="M 737.406 333.773 L 739.479 332.9 L 740.961 333.697 C 741.678 347.673 742.382 383.176 737.923 395.236 C 736.976 395.542 735.849 395.958 734.893 396.137 C 732.737 389.61 733.965 347.309 734.656 338.75 L 737.406 333.773 z"/>
<path transform="translate(0,0)" fill="rgb(36,19,28)" d="M 718.647 338.092 C 717.711 337.63 717.921 337.514 717.17 336.401 L 718.142 335.213 C 722.943 333.763 732.072 333.909 737.406 333.773 L 734.656 338.75 C 731.222 336.988 722.918 337.914 718.647 338.092 z"/>
<path transform="translate(0,0)" fill="rgb(36,19,28)" d="M 807.492 407.889 C 809.091 404.489 809.462 401.204 811.343 397.106 C 812.235 398.869 819.121 410.879 819.026 410.629 L 823.32 410.785 C 825.881 413.171 830.598 414.252 834.034 414.698 C 831.814 416.252 829.567 417.767 827.293 419.24 C 816.362 421.978 812.498 416.353 807.492 407.889 z"/>
<path transform="translate(0,0)" fill="rgb(12,10,15)" d="M 823.32 410.785 C 825.881 413.171 830.598 414.252 834.034 414.698 C 831.814 416.252 829.567 417.767 827.293 419.24 C 824.755 417.941 822.464 417.871 818.95 416.103 C 817.787 413.231 818.1 414.244 819.026 410.629 L 823.32 410.785 z"/>
<path transform="translate(0,0)" fill="rgb(2,1,2)" d="M 1466.07 498.884 C 1491.11 499.374 1540.29 490.94 1539.91 526.234 C 1539.81 535.629 1535.31 544.297 1528.86 550.787 L 1538.55 559.887 C 1549.11 542.563 1553.69 516.375 1563.1 499.065 C 1572.95 499.119 1579.96 499.529 1589.78 500.463 C 1599.32 523.909 1616.08 561.312 1623.44 583.911 C 1611.94 584.314 1601.1 584.207 1589.63 584.067 C 1580.44 563.849 1572.31 561.991 1563.91 583.524 C 1551.6 584.52 1527.57 585.598 1515.45 583.875 C 1508.54 576.814 1504.14 567.83 1498.18 559.467 C 1498.09 567.295 1498.18 576.283 1497.77 584.007 C 1487.47 584.428 1476.09 585.123 1465.88 584.757 C 1465.76 578.363 1465.69 574.559 1466.5 568.114 L 1460.98 565.658 C 1464.31 561.895 1465.22 560.781 1464.47 556.015 C 1465.62 553.8 1465.87 547.432 1466.1 544.647 C 1466.63 529.83 1466.2 513.793 1466.07 498.884 z"/>
<path transform="translate(0,0)" fill="rgb(218,218,219)" d="M 1466.1 544.647 C 1467.12 552.928 1468.89 560.189 1466.5 568.114 L 1460.98 565.658 C 1464.31 561.895 1465.22 560.781 1464.47 556.015 C 1465.62 553.8 1465.87 547.432 1466.1 544.647 z"/>
<path transform="translate(0,0)" fill="rgb(215,228,245)" d="M 1497.83 507.487 L 1498.34 507.477 C 1501.41 507.442 1508.34 507.095 1511.13 507.674 C 1540.8 513.838 1533.63 533.43 1516.44 547.271 C 1523.42 555.777 1529.78 566.94 1536.94 576.149 C 1520.01 576.402 1519.4 573.544 1510.38 560.481 C 1505.98 553.976 1498.92 544.431 1489.94 547.994 C 1483.8 555.716 1491.4 571.921 1485.68 576.679 C 1482.17 577.071 1481.16 577.491 1478.12 575.882 C 1473.71 570.74 1475.84 563.025 1475.53 556.603 C 1474.74 540.393 1474.99 524.119 1475.12 507.894 C 1482.57 508.003 1490.36 507.679 1497.83 507.487 z"/>
<path transform="translate(0,0)" fill="rgb(2,1,2)" d="M 1491.42 519.496 C 1502 519.027 1529.27 516.79 1512.44 534.986 C 1506.73 536.372 1494.48 535.157 1488 534.754 C 1487.9 530.387 1487.13 524.117 1488.74 520.45 L 1491.42 519.496 z"/>
<path transform="translate(0,0)" fill="rgb(215,228,245)" d="M 1569.23 506.895 C 1573.2 506.578 1580.36 506.29 1582.18 510.156 C 1586.82 519.961 1606.42 566.408 1605.96 574.86 C 1596.08 581.563 1592.49 571.09 1587.91 564.621 C 1585.63 561.397 1584.44 562.028 1580.79 561.61 L 1563.16 561.133 C 1561.04 564.861 1559.89 569.714 1557.43 573.194 C 1554.96 576.675 1547.49 578.133 1544.24 575.218 C 1544.15 567.542 1564.48 513.241 1569.23 506.895 z"/>
<path transform="translate(0,0)" fill="rgb(2,1,2)" d="M 1576.27 528.532 L 1578.23 530.49 C 1580.52 538.508 1581.68 540.597 1580.11 548.655 C 1577.79 551.063 1578.48 550.287 1574.01 550.538 C 1569.63 548.592 1570.62 549.71 1568.44 546.421 C 1567.53 539.565 1572.33 534.401 1576.27 528.532 z"/>
<path transform="translate(0,0)" fill="rgb(35,70,115)" d="M 1035.68 149.291 C 1042.81 148.022 1050.06 150.794 1054.53 156.497 C 1059 162.199 1059.95 169.903 1057.02 176.525 C 1054.08 183.148 1047.72 187.608 1040.5 188.122 C 1030.1 188.862 1020.95 181.335 1019.66 170.994 C 1018.38 160.652 1025.42 151.115 1035.68 149.291 z"/>
</svg>