<?xml version="1.0" encoding="utf-8" ?><svg xmlns="http://www.w3.org/2000/svg" xmlns:xlink="http://www.w3.org/1999/xlink" width="345" height="245" viewBox="0 0 345 245"><path fill="#D6E4F5" d="M0 0L345 0L345 245L0 245L0 0Z"/><path fill="#7E91B8" d="M175.818 16.5612C177.602 19.3386 181.552 23.0194 184.037 25.4796L197.926 39.0864C201.591 42.7261 205.24 47.1369 209.129 50.4031C213.955 53.9568 218.536 55.8006 222.332 60.8499C224.466 63.6877 226.314 67.0559 228.406 69.7383L242.573 83.39C243.61 84.4043 246.582 87.0099 247.207 88.0818C249.588 86.503 253.735 82.1651 256.455 83.596C261.222 86.1039 253.412 90.8772 251.497 92.1997C252.519 93.6746 255.956 96.7652 257.356 98.1475C271.263 111.878 285.052 125.807 298.925 139.564L316.299 156.582C319.985 160.216 328.871 168.383 330.899 172.57C328.683 176.187 318.119 184.501 314.494 187.293C285.954 209.543 252.333 224.354 216.652 230.395C193.555 234.396 168.229 235.083 144.839 232.648C116.754 229.501 89.4531 221.382 64.2128 208.671C61.8731 207.478 59.5866 205.905 57.2912 204.691C48.1337 199.849 39.5192 194.563 30.9566 188.737C27.5049 186.359 23.9385 184.165 20.4113 181.908C19.3571 181.233 17.6612 179.967 18.7499 178.704C21.1351 175.937 23.9454 173.516 26.5754 170.971C29.8063 167.805 32.955 164.556 36.0181 161.228L96.9549 96.9435C103.799 89.7128 110.95 82.6494 117.863 75.4767C119.427 73.8542 120.732 72.1737 122.073 70.3734C121.912 69.1446 122.316 65.2484 122.557 63.9987C124.55 53.641 131.663 51.4568 140.564 48.1667C142.657 47.3929 145.125 46.5745 146.98 45.3182C150.445 41.0424 155.51 36.0002 159.451 32.0944C163.327 28.2535 171.326 18.6361 175.818 16.5612Z"/><path fill="#D8A7A5" d="M175.818 16.5612C177.602 19.3386 181.552 23.0194 184.037 25.4796L197.926 39.0864C201.591 42.7261 205.24 47.1369 209.129 50.4031C213.955 53.9568 218.536 55.8006 222.332 60.8499C224.466 63.6877 226.314 67.0559 228.406 69.7383L242.573 83.39C243.61 84.4043 246.582 87.0099 247.207 88.0818C249.588 86.503 253.735 82.1651 256.455 83.596C261.222 86.1039 253.412 90.8772 251.497 92.1997C248.492 94.0676 245.139 96.647 242.238 98.7552L230.589 107.101C229.77 107.693 225.149 110.771 224.68 111.257C225.149 112.199 224.892 114.578 224.869 115.77C227.046 116.767 235.277 118.911 237.733 119.335C241.414 120.658 245.09 122.401 247.693 125.425C250.327 128.484 251.129 133.497 253.702 136.493C255.673 138.971 258.189 140.462 260.386 142.726C262.4 144.801 263.162 147.665 264.392 149.757C265.409 153.534 265.6 155.375 263.897 159.097C256.686 170.868 242.435 180.532 233.952 191.45C232.775 192.965 231.174 194.56 230.128 196.134C215.701 208.072 207.827 204.159 191.289 206.682C183.605 207.951 170.113 207.772 162.454 206.646L160.585 205.944C159.308 205.54 158.558 204.983 157.49 204.235C156.609 201.765 156.308 198.954 157.365 196.492C157.824 196.326 160.461 194.302 161.625 194.047C165.201 193.182 166.777 193.407 170.612 192.841C175.858 192.066 185.384 191.337 189.046 187.049C189.728 186.251 188.862 183.778 188.448 182.756C187.975 181.362 185.746 176.881 185.023 175.339C183.888 172.751 182.76 169.827 182.009 167.104C180.653 163.616 179.415 155.975 178.482 151.922C178.443 150.86 178.092 148.691 177.708 147.701C177.048 147.35 176.44 148.01 175.693 147.943C172.266 147.634 167.871 145.154 165.935 142.358C162.024 136.711 160.314 130.049 156.483 124.348C153.858 120.443 151.002 116.946 148.044 113.302C140.588 103.99 130.24 91.335 125.777 80.318C122.85 78.4506 123.864 72.0036 122.073 70.3734C121.912 69.1446 122.316 65.2484 122.557 63.9987C124.55 53.641 131.663 51.4568 140.564 48.1667C142.657 47.3929 145.125 46.5745 146.98 45.3182C150.445 41.0424 155.51 36.0002 159.451 32.0944C163.327 28.2535 171.326 18.6361 175.818 16.5612Z"/><defs><linearGradient id="gradient_0" gradientUnits="userSpaceOnUse" x1="177.72281" y1="155.00749" x2="248.02209" y2="183.98698"><stop offset="0" stop-color="#542D27"/><stop offset="1" stop-color="#9A6351"/></linearGradient></defs><path fill="url(#gradient_0)" d="M217.216 116.816C218.924 117.676 222.357 120.198 223.238 121.88L223.274 122.506C222.633 122.757 222.103 122.839 221.435 122.969C228.405 123.021 238.456 122.253 243.78 127.672C247.281 131.235 246.838 136.627 249.935 140.237C253.724 144.654 260.976 145.401 260.823 152.68C260.721 157.524 256.823 163.204 253.406 166.393C249.505 170.032 244.869 172.758 241.101 176.574C238.219 179.493 235.911 182.836 233.385 186.049C230.794 189.346 227.837 192.624 224.739 195.446C221.885 198.047 218.783 200.159 215.115 201.416C207.549 204.008 179.603 205.994 171.047 205.678C167.233 205.537 162.831 205.609 159.949 202.773C158.682 198.278 158.995 196.66 164.073 195.726C167.381 195.117 171.225 195.296 174.449 194.801C181.95 193.649 196.691 190.308 200.247 182.833C199.406 182.113 196.572 181.685 195.393 181.448C195.042 181.308 194.696 181.158 194.354 180.998C192.844 180.289 192.698 179.533 192.134 177.997C191.544 177.287 190.652 175.275 190.187 174.382C185.906 166.15 186.599 157.183 187.693 148.288C188.063 145.341 189.103 140.302 190.028 137.533C190.095 136.951 190.432 135.616 190.573 134.986C191.429 130.452 193.06 128.112 192.091 123.202C192.452 122.588 192.26 122.799 193.065 122.455C194.82 124.094 199.47 126.115 201.702 124.773L201.916 124.369L202.318 124.544C202.715 124.467 203.059 124.169 203.397 123.927C205.24 124.393 205.976 124.475 207.774 123.877C208.539 124.038 208.724 123.922 209.425 123.642C210.829 120.728 214.501 118.423 217.216 116.816Z"/><path fill="#725C52" d="M192.091 123.202C192.452 122.588 192.26 122.799 193.065 122.455C194.82 124.094 199.47 126.115 201.702 124.773L201.916 124.369L202.318 124.544C202.822 125.294 203.009 125.487 203.113 126.391C202.927 127.254 202.174 127.782 201.502 128.383C198.534 128.959 194.5 133.782 191.952 135.166C191.765 135.267 190.844 135.05 190.573 134.986C191.429 130.452 193.06 128.112 192.091 123.202Z"/><path fill="#4C201D" d="M190.028 137.533L190.375 137.751C190.233 139.507 190.249 140.534 189.442 142.112L189.711 142.147C190.336 141.61 191.341 140.576 192.073 140.497C193.316 142.126 192.073 153.075 190.068 154.594C189.246 155.216 187.667 154.486 187.508 156.1C187.008 161.207 187.63 167.044 189.508 171.842C189.915 172.883 192.662 177.582 192.134 177.997C191.544 177.287 190.652 175.275 190.187 174.382C185.906 166.15 186.599 157.183 187.693 148.288C188.063 145.341 189.103 140.302 190.028 137.533Z"/><path fill="#E5E5E4" d="M217.216 116.816C218.924 117.676 222.357 120.198 223.238 121.88L223.274 122.506C222.633 122.757 222.103 122.839 221.435 122.969C220.134 123.048 216.009 123.22 214.954 123.482C213.115 123.44 211.541 123.802 209.425 123.642C210.829 120.728 214.501 118.423 217.216 116.816Z"/><path fill="#4C201D" d="M209.425 123.642C211.541 123.802 213.115 123.44 214.954 123.482L216.663 123.676C215.209 124.361 209.254 123.173 208.385 125.318C208.012 126.24 208.801 128.596 206.074 128.38C204.982 127.576 205.858 126.883 204.864 126.619C203.984 127.031 202 128.412 201.502 128.383C202.174 127.782 202.927 127.254 203.113 126.391C203.009 125.487 202.822 125.294 202.318 124.544C202.715 124.467 203.059 124.169 203.397 123.927C205.24 124.393 205.976 124.475 207.774 123.877C208.539 124.038 208.724 123.922 209.425 123.642Z"/><path fill="#774E49" d="M195.393 181.448C197.787 181.397 201.14 175.474 202.887 175.608C203.887 177.482 201.404 181.336 200.247 182.833C199.406 182.113 196.572 181.685 195.393 181.448Z"/><path fill="#E5E5E4" d="M211.178 153.308C211.943 154.407 213.132 156.223 214.036 157.106C215.646 156.347 218.459 146.891 219.597 144.433L219.039 144.203C217.846 144.705 217.259 147.636 216.895 148.863L216.628 148.732C217.742 142.975 218.687 143.134 224.238 143.717C226.186 149.303 228.722 155.124 230.525 160.375C228.41 160.524 225.21 160.851 223.505 159.4C222.811 158.121 222.751 157.468 221.301 157.22C220.465 157.448 220.108 157.936 219.505 158.563C218.855 158.439 218.098 158.419 217.43 158.379C216.505 158.856 215.498 158.79 214.454 158.816L213.697 158.908C213.361 156.738 211.756 154.951 210.432 153.144L213.363 150.183C213.542 151.414 212.048 152.473 211.178 153.308Z"/><defs><linearGradient id="gradient_1" gradientUnits="userSpaceOnUse" x1="229.07452" y1="151.91148" x2="222.45096" y2="152.08145"><stop offset="0" stop-color="black"/><stop offset="1" stop-color="#230C11"/></linearGradient></defs><path fill="url(#gradient_1)" d="M211.178 153.308C211.943 154.407 213.132 156.223 214.036 157.106C215.646 156.347 218.459 146.891 219.597 144.433L219.039 144.203C217.846 144.705 217.259 147.636 216.895 148.863L216.628 148.732C217.742 142.975 218.687 143.134 224.238 143.717C226.186 149.303 228.722 155.124 230.525 160.375C228.41 160.524 225.21 160.851 223.505 159.4C224.395 158.974 224.777 159.048 225.776 159.092C226.097 159.024 226.496 158.903 226.82 158.814L227.086 158.249C227.107 156.544 223.092 145.195 221.035 144.894C218.892 145.783 215.777 155.87 214.454 158.816L213.697 158.908C213.361 156.738 211.756 154.951 210.432 153.144L213.363 150.183C213.542 151.414 212.048 152.473 211.178 153.308Z"/><path fill="#2F2320" d="M217.43 158.379C218.589 155.5 220.475 154.362 223.066 156.283C224.339 157.226 224.562 158.549 225.776 159.092C224.777 159.048 224.395 158.974 223.505 159.4C222.811 158.121 222.751 157.468 221.301 157.22C220.465 157.448 220.108 157.936 219.505 158.563C218.855 158.439 218.098 158.419 217.43 158.379Z"/><path fill="#2B2C27" d="M220.994 149.362C221.843 149.956 222.581 152.169 222.219 153.22L221.527 153.443C220.516 153.377 220.102 153.564 219.636 152.641C219.587 151.708 220.517 150.257 220.994 149.362Z"/><path fill="#E5E5E4" d="M202.46 145.331C207.553 145.393 212.807 143.621 213.363 150.183L210.432 153.144C211.756 154.951 213.361 156.738 213.697 158.908L212.315 159.006C211.667 159.574 211.558 159.659 211.158 160.446C209.296 159.727 208.581 158.217 207.503 156.556L206.912 159.988C205.722 160.237 203.009 160.947 202.179 159.899L202.366 159.421C202.665 159.237 202.857 159.271 203.235 159.234L202.759 158.868C202.033 157.372 202.4 147.451 202.46 145.331Z"/><defs><linearGradient id="gradient_2" gradientUnits="userSpaceOnUse" x1="206.36383" y1="160.35118" x2="209.21008" y2="155.0778"><stop offset="0" stop-color="#241C20"/><stop offset="1" stop-color="#2F2D29"/></linearGradient></defs><path fill="url(#gradient_2)" d="M203.235 159.234C206.598 157.888 203.251 154.492 205.705 152.918C208.148 153.063 210.239 157.598 212.315 159.006C211.667 159.574 211.558 159.659 211.158 160.446C209.296 159.727 208.581 158.217 207.503 156.556L206.912 159.988C205.722 160.237 203.009 160.947 202.179 159.899L202.366 159.421C202.665 159.237 202.857 159.271 203.235 159.234Z"/><path fill="#2B2C27" d="M205.496 147.266C207.126 147.193 210.313 147.115 210.775 149.1C210.528 149.94 210.218 150.084 209.516 150.613C207.776 151.028 205.178 151.521 204.618 149.323C204.854 148.299 204.876 148.101 205.496 147.266Z"/><path fill="#89716E" d="M225.131 134.065C228.023 134.824 226.75 137.566 225.944 139.31L227.424 140.66L227.182 140.985C224.222 139.408 221.025 136.7 225.131 134.065Z"/><path fill="#4C201D" d="M217.43 158.379C218.098 158.419 218.855 158.439 219.505 158.563C217.519 161.761 214.51 160.861 211.158 160.446C211.558 159.659 211.667 159.574 212.315 159.006L213.697 158.908L214.454 158.816C215.498 158.79 216.505 158.856 217.43 158.379Z"/><path fill="#4C201D" d="M135.538 75.2382C137.137 69.1721 135.153 69.0615 135.049 64.451C138.107 60.6142 147.339 60.0147 151.896 58.9741C153.135 58.6909 156.611 56.6423 157.496 56.4643C162.553 55.4471 168.107 54.2238 173.167 53.2295C173.767 53.1117 177.757 53.8879 178.75 53.8916C179.78 53.8955 180.819 53.4172 181.555 53.5986C184.729 54.3615 188.028 55.8211 191.22 56.4085C196.165 57.3185 201.117 56.8173 204.996 60.641C207.185 62.7979 208.837 65.4561 210.976 67.6121C213.493 70.1485 216.767 72.1449 219.098 74.9003C220.283 76.2785 220.532 76.9407 221.133 78.5855C221.603 80.9109 223.249 82.164 223.133 84.9297C220.044 84.8861 214.472 84.8595 212.005 86.939C211.863 87.2675 211.618 87.6899 211.893 87.9899C214.763 91.1168 216.719 91.2891 217.309 96.1883C217.362 96.6221 217.324 96.5147 217.466 96.9494C217.756 98.1753 217.645 99.0624 218.266 99.8279C218.888 100.012 219.387 100.152 220.024 100.293C222.625 102.358 223.724 102.298 225.889 103.638L222.225 106.125C220.806 107.183 218.016 109.398 216.621 110.25C215.342 111.285 213.675 112.275 212.26 113.164C211.096 113.67 209.84 114.91 208.867 115.28C205.779 116.455 200.792 117.684 200.151 121.578C200.381 122.048 200.468 122.08 200.885 122.421C201.207 123.144 201.434 123.736 201.916 124.369L201.702 124.773C199.47 126.115 194.82 124.094 193.065 122.455C192.26 122.799 192.452 122.588 192.091 123.202C193.06 128.112 191.429 130.452 190.573 134.986C190.432 135.616 190.095 136.951 190.028 137.533C189.103 140.302 188.063 145.341 187.693 148.288C185.359 148.509 178.249 145.17 179.271 142.925L179.046 142.43C176.58 139.722 177.641 135.87 177.185 132.226C176.598 127.545 173.778 126.431 171.5 123.081C169.968 120.829 168.708 117.69 167.062 115.234C164.903 112.012 162.15 109.973 159.811 107.327C156.789 103.909 155.906 102.373 152.202 99.3449C151.436 96.3275 148.069 89.1115 146.188 86.447C143.632 82.8273 138.759 78.7035 135.538 75.2382Z"/><defs><linearGradient id="gradient_3" gradientUnits="userSpaceOnUse" x1="187.80379" y1="116.61464" x2="171.96001" y2="124.04836"><stop offset="0" stop-color="#957D7E"/><stop offset="1" stop-color="#A79793"/></linearGradient></defs><path fill="url(#gradient_3)" d="M170.064 97.2255C170.449 96.2471 170.448 96.3344 171.355 96.0211C174.177 99.6094 177.64 102.649 180.555 106.302C183.404 109.409 187.369 113.295 188.842 117.422L188.92 117.848C190.188 119.634 191.297 121.138 192.091 123.202C193.06 128.112 191.429 130.452 190.573 134.986C190.432 135.616 190.095 136.951 190.028 137.533C189.103 140.302 188.063 145.341 187.693 148.288C185.359 148.509 178.249 145.17 179.271 142.925L179.046 142.43C180.36 141.509 182.179 137.163 182.382 135.496C183.763 124.208 176.972 112.049 170.925 103.022C170.276 102.31 168.472 99.7123 167.808 98.8073C168.666 97.6329 169.324 98.5188 170.064 97.2255Z"/><path fill="#E5E5E4" d="M179.271 142.925C180.559 143.105 181.502 143.183 182.705 142.349C186.566 139.674 189.62 130.038 189.427 125.542C189.347 123.698 186.754 120.093 187.102 118.357C187.882 117.783 187.812 117.956 188.92 117.848C190.188 119.634 191.297 121.138 192.091 123.202C193.06 128.112 191.429 130.452 190.573 134.986C190.432 135.616 190.095 136.951 190.028 137.533C189.103 140.302 188.063 145.341 187.693 148.288C185.359 148.509 178.249 145.17 179.271 142.925Z"/><defs><linearGradient id="gradient_4" gradientUnits="userSpaceOnUse" x1="169.19429" y1="99.445465" x2="181.60323" y2="105.45645"><stop offset="0" stop-color="#8B7066"/><stop offset="1" stop-color="#A6959A"/></linearGradient></defs><path fill="url(#gradient_4)" d="M170.064 97.2255C170.449 96.2471 170.448 96.3344 171.355 96.0211C174.177 99.6094 177.64 102.649 180.555 106.302C180.831 107.124 181.137 108.176 180.372 108.762C179.223 108.552 175.444 104.051 174.635 102.986C174.037 101.513 171.474 98.0592 170.064 97.2255Z"/><path fill="#725C52" d="M167.808 98.8073C168.666 97.6329 169.324 98.5188 170.064 97.2255C171.474 98.0592 174.037 101.513 174.635 102.986C173.9 102.291 173.46 101.426 172.777 101.194L172.544 101.626L173.246 102.516L173.128 102.777C172.515 102.246 171.883 101.375 171.327 101.405C171.128 102.045 171.043 102.357 170.925 103.022C170.276 102.31 168.472 99.7123 167.808 98.8073Z"/><defs><linearGradient id="gradient_5" gradientUnits="userSpaceOnUse" x1="223.19574" y1="94.175926" x2="204.95216" y2="94.518425"><stop offset="0" stop-color="#D19099"/><stop offset="1" stop-color="#E1C4BF"/></linearGradient></defs><path fill="url(#gradient_5)" d="M221.133 78.5855C221.603 80.9109 223.249 82.164 223.133 84.9297C220.044 84.8861 214.472 84.8595 212.005 86.939C211.863 87.2675 211.618 87.6899 211.893 87.9899C214.763 91.1168 216.719 91.2891 217.309 96.1883C217.362 96.6221 217.324 96.5147 217.466 96.9494C217.756 98.1753 217.645 99.0624 218.266 99.8279C218.888 100.012 219.387 100.152 220.024 100.293C222.625 102.358 223.724 102.298 225.889 103.638L222.225 106.125C220.806 107.183 218.016 109.398 216.621 110.25L216.195 109.044C215.412 104.816 214.765 101.228 212.927 97.2695C211.672 94.6322 210.145 92.133 208.371 89.8124C206.705 87.6302 204.08 85.1832 204.242 82.2963C206.085 79.8607 219.697 83.2714 221.133 78.5855Z"/><path fill="#C87F85" d="M222.225 106.125C221.927 104.005 218.249 102.731 219.255 100.554L220.024 100.293C222.625 102.358 223.724 102.298 225.889 103.638L222.225 106.125Z"/><path fill="#918085" d="M216.195 109.044L216.621 110.25C215.342 111.285 213.675 112.275 212.26 113.164C211.096 113.67 209.84 114.91 208.867 115.28C205.779 116.455 200.792 117.684 200.151 121.578C200.381 122.048 200.468 122.08 200.885 122.421C201.207 123.144 201.434 123.736 201.916 124.369L201.702 124.773C199.47 126.115 194.82 124.094 193.065 122.455C192.26 122.799 192.452 122.588 192.091 123.202C191.297 121.138 190.188 119.634 188.92 117.848L188.842 117.422C190.001 116.871 189.872 116.885 190.212 115.748L189.698 114.739C192.654 114.15 197.62 113.781 199.448 111.16C203.862 115.308 209.99 112.032 214.376 109.742C214.423 109.718 215.551 109.714 215.818 109.677L216.195 109.044Z"/><path fill="#E5E5E4" d="M190.212 115.748L190.202 116.105C190.724 115.985 191.341 115.738 191.75 116.087C193.451 117.535 194.487 119.912 196.125 121.54C197.728 122.095 199.207 122.214 200.885 122.421C201.207 123.144 201.434 123.736 201.916 124.369L201.702 124.773C199.47 126.115 194.82 124.094 193.065 122.455C192.26 122.799 192.452 122.588 192.091 123.202C191.297 121.138 190.188 119.634 188.92 117.848L188.842 117.422C190.001 116.871 189.872 116.885 190.212 115.748Z"/><path fill="#89716E" d="M190.212 115.748L190.202 116.105C190.993 119.041 192.739 121.348 193.065 122.455C192.26 122.799 192.452 122.588 192.091 123.202C191.297 121.138 190.188 119.634 188.92 117.848L188.842 117.422C190.001 116.871 189.872 116.885 190.212 115.748Z"/><defs><linearGradient id="gradient_6" gradientUnits="userSpaceOnUse" x1="192.76244" y1="98.678825" x2="187.37491" y2="101.18905"><stop offset="0" stop-color="#6B4E4C"/><stop offset="1" stop-color="#9F7F7B"/></linearGradient></defs><path fill="url(#gradient_6)" d="M189.765 112.467C189.651 112.065 189.35 109.131 189.296 108.527C188.878 103.854 185.825 97.7814 188.842 93.5923C189.226 93.0597 189.518 91.2408 189.624 90.5332L189.818 90.5304C189.987 91.6685 190.685 92.5417 190.858 93.4623C191.603 97.4134 193.995 101.724 194.928 105.426C196.179 107.926 197.382 109.243 199.448 111.16C197.62 113.781 192.654 114.15 189.698 114.739C189.535 113.97 189.673 113.249 189.765 112.467Z"/><path fill="#D8A7A5" d="M190.584 104.454C191.254 105.601 192.033 107.115 193.064 107.899C194.091 107.579 193.016 106.605 194.928 105.426C196.179 107.926 197.382 109.243 199.448 111.16C197.62 113.781 192.654 114.15 189.698 114.739C189.535 113.97 189.673 113.249 189.765 112.467C190.427 111.844 189.871 107.022 190.584 104.454Z"/><path fill="#774E49" d="M164.653 94.8373C166.294 94.4286 168.227 93.4059 169.496 93.6693C170.344 94.1048 170.847 95.1763 171.355 96.0211C170.448 96.3344 170.449 96.2471 170.064 97.2255C169.324 98.5188 168.666 97.6329 167.808 98.8073C166.606 97.409 165.734 96.3291 164.653 94.8373Z"/><path fill="#E5E5E4" d="M174.769 78.0332C175.7 75.8225 177.553 68.6647 179.573 68.0894C181.628 69.3054 177.095 79.0711 176.171 80.9067C175.706 81.8309 174.909 82.067 174.001 82.301C172.877 83.9807 168.54 84.1459 168.23 81.4903C167.168 79.1455 166.181 77.6654 164.597 75.6637C167.069 73.9412 167.747 73.8527 167.395 70.66C167.53 70.0013 168.312 69.5167 168.862 69.0836L168.918 68.4787C169.605 67.9743 169.282 68.0862 170.139 68.0617C172.171 68.9445 173.977 75.8573 174.769 78.0332Z"/><path fill="#2F2320" d="M168.862 69.0836C170.513 73.1684 171.954 78.7558 174.001 82.301C172.877 83.9807 168.54 84.1459 168.23 81.4903C167.168 79.1455 166.181 77.6654 164.597 75.6637C167.069 73.9412 167.747 73.8527 167.395 70.66C167.53 70.0013 168.312 69.5167 168.862 69.0836Z"/><path fill="#E5E5E4" d="M156.77 68.1623C160.266 68.1672 165.718 67.1702 167.395 70.66C167.747 73.8527 167.069 73.9412 164.597 75.6637C166.181 77.6654 167.168 79.1455 168.23 81.4903C166.214 84.3741 162.73 75.8108 160.443 76.0706C157.686 76.3836 160.017 79.9204 158.291 81.5726C157.626 81.8127 157.515 81.8743 156.85 81.6639C156.224 80.7525 156.652 70.113 156.77 68.1623Z"/><path fill="#2B2C27" d="M159.459 70.5523C161.277 70.4973 164.078 70.1159 165.191 71.7682C165.033 72.8174 165.132 72.4699 164.428 73.342C162.78 73.7726 159.731 74.3546 158.938 72.44C159.004 71.5099 159.059 71.3892 159.459 70.5523Z"/><path fill="#7E91B8" d="M175.818 16.5612C177.602 19.3386 181.552 23.0194 184.037 25.4796L197.926 39.0864C201.591 42.7261 205.24 47.1369 209.129 50.4031L208.027 51.1662C204.624 50.1602 200.895 48.492 197.257 47.4826C178.724 42.3398 167.062 42.4307 148.536 46.6382C148.046 46.0852 147.568 45.7592 146.98 45.3182C150.445 41.0424 155.51 36.0002 159.451 32.0944C163.327 28.2535 171.326 18.6361 175.818 16.5612Z"/><path fill="#E5E5E4" d="M247.207 88.0818C249.588 86.503 253.735 82.1651 256.455 83.596C261.222 86.1039 253.412 90.8772 251.497 92.1997C248.492 94.0676 245.139 96.647 242.238 98.7552L230.589 107.101C229.77 107.693 225.149 110.771 224.68 111.257L223.259 112.318C221.335 114.425 218.885 115.286 217.216 116.816C214.501 118.423 210.829 120.728 209.425 123.642C208.724 123.922 208.539 124.038 207.774 123.877C205.976 124.475 205.24 124.393 203.397 123.927C203.059 124.169 202.715 124.467 202.318 124.544L201.916 124.369C201.434 123.736 201.207 123.144 200.885 122.421C200.468 122.08 200.381 122.048 200.151 121.578C200.792 117.684 205.779 116.455 208.867 115.28C209.84 114.91 211.096 113.67 212.26 113.164C213.675 112.275 215.342 111.285 216.621 110.25C218.016 109.398 220.806 107.183 222.225 106.125L225.889 103.638L228.767 101.37C229.386 101.015 232.07 99.0184 232.818 98.4995C237.725 95.0971 242.284 91.5123 247.207 88.0818Z"/><path fill="#010001" d="M247.207 88.0818C249.588 86.503 253.735 82.1651 256.455 83.596C261.222 86.1039 253.412 90.8772 251.497 92.1997C248.492 94.0676 245.139 96.647 242.238 98.7552L230.589 107.101C229.77 107.693 225.149 110.771 224.68 111.257L223.259 112.318C222.49 112.285 220.909 113.095 220.172 113.499L220.259 113.678L219.874 113.879L219.788 113.614L220.054 113.53C220.593 112.769 220.884 112.798 221.465 111.732L221.547 111.578L242.964 96.1798C245.285 94.5184 247.625 92.7928 249.913 91.0848C251.705 89.7472 255.773 87.5873 256.224 85.3787C255.546 84.3257 253.962 85.2425 253.188 85.8371C243.436 93.3344 233.164 100.168 223.218 107.41C220.302 109.534 217.287 111.859 214.312 113.841L213.809 113.479L212.8 113.674L212.26 113.164C213.675 112.275 215.342 111.285 216.621 110.25C218.016 109.398 220.806 107.183 222.225 106.125L225.889 103.638L228.767 101.37C229.386 101.015 232.07 99.0184 232.818 98.4995C237.725 95.0971 242.284 91.5123 247.207 88.0818Z"/><path fill="#2F2320" d="M200.885 122.421C200.468 122.08 200.381 122.048 200.151 121.578C200.792 117.684 205.779 116.455 208.867 115.28C209.84 114.91 211.096 113.67 212.26 113.164L212.8 113.674L213.809 113.479L214.312 113.841C212.792 115.057 211.214 116.425 209.22 117.716C206.929 119.2 199.678 118.678 203.317 123.847C203.344 123.874 203.37 123.9 203.397 123.927C203.059 124.169 202.715 124.467 202.318 124.544L201.916 124.369C201.434 123.736 201.207 123.144 200.885 122.421Z"/><defs><linearGradient id="gradient_7" gradientUnits="userSpaceOnUse" x1="215.23854" y1="119.74194" x2="211.56532" y2="117.48379"><stop offset="0" stop-color="#1D0D18"/><stop offset="1" stop-color="#2B3429"/></linearGradient></defs><path fill="url(#gradient_7)" d="M221.547 111.578L221.465 111.732C220.884 112.798 220.593 112.769 220.054 113.53L219.788 113.614L219.874 113.879L220.259 113.678L220.172 113.499C220.909 113.095 222.49 112.285 223.259 112.318C221.335 114.425 218.885 115.286 217.216 116.816C214.501 118.423 210.829 120.728 209.425 123.642C208.724 123.922 208.539 124.038 207.774 123.877C209.012 120.033 211.028 118.988 214.17 116.735C216.606 114.987 219.072 113.272 221.547 111.578Z"/><defs><linearGradient id="gradient_8" gradientUnits="userSpaceOnUse" x1="227.43602" y1="84.919281" x2="245.18733" y2="82.632416"><stop offset="0" stop-color="#8987A9"/><stop offset="1" stop-color="#7E94C7"/></linearGradient></defs><path fill="url(#gradient_8)" d="M228.406 69.7383L242.573 83.39C243.61 84.4043 246.582 87.0099 247.207 88.0818C242.284 91.5123 237.725 95.0971 232.818 98.4995C232.07 99.0184 229.386 101.015 228.767 101.37C228.613 97.9507 229.096 93.9534 229.288 90.4708C229.673 83.4632 229.033 77.86 227.415 71.1025C227.718 69.7927 227.589 71.1497 228.406 69.7383Z"/><path fill="#C87F85" d="M217.466 96.9494C217.324 96.5147 217.362 96.6221 217.309 96.1883C216.719 91.2891 214.763 91.1168 211.893 87.9899C211.618 87.6899 211.863 87.2675 212.005 86.939C214.472 84.8595 220.044 84.8861 223.133 84.9297L223.987 85.9345C222.064 87.0922 220.519 85.3527 219.427 87.0762C220.002 88.7061 223.615 88.7989 224.622 89.898C224.763 91.5153 223.192 95.7464 222.713 97.583C221.271 98.3828 218.993 97.5054 217.782 96.6164L217.618 96.4932L217.466 96.9494Z"/><path fill="#918085" d="M146.98 45.3182C147.568 45.7592 148.046 46.0852 148.536 46.6382C144.052 47.6107 140.305 49.1787 136.114 50.7367C121.673 56.1049 121.466 67.5713 125.777 80.318C122.85 78.4506 123.864 72.0036 122.073 70.3734C121.912 69.1446 122.316 65.2484 122.557 63.9987C124.55 53.641 131.663 51.4568 140.564 48.1667C142.657 47.3929 145.125 46.5745 146.98 45.3182Z"/><path fill="#89716E" d="M209.129 50.4031C213.955 53.9568 218.536 55.8006 222.332 60.8499C224.466 63.6877 226.314 67.0559 228.406 69.7383C227.589 71.1497 227.718 69.7927 227.415 71.1025C224.838 62.2955 215.789 55.2336 208.027 51.1662L209.129 50.4031Z"/><path fill="#D78C97" d="M223.987 85.9345C224.205 86.2325 224.932 87.2668 224.955 87.5492C225.274 91.4099 224.809 94.3849 225.309 98.3502L225.138 98.5749C224.55 96.9531 224.706 95.3405 224.747 93.6161C224.291 94.6595 223.431 96.7967 222.713 97.583C223.192 95.7464 224.763 91.5153 224.622 89.898C223.615 88.7989 220.002 88.7061 219.427 87.0762C220.519 85.3527 222.064 87.0922 223.987 85.9345Z"/><path fill="#78788B" d="M263.897 159.097C264.513 159.193 264.558 159.183 265.068 159.517C263.565 161.977 260.425 165.259 258.827 167.98C258.202 169.044 255.251 170.708 254.351 171.809C252.586 173.297 250.059 176.716 248.175 177.664C246.03 178.743 246.678 180.489 246.074 181.013C241.154 185.281 236.634 188.464 233.629 194.421L233.391 193.828C233.322 193.877 229.761 196.233 230.128 196.134C231.174 194.56 232.775 192.965 233.952 191.45C242.435 180.532 256.686 170.868 263.897 159.097Z"/><defs><linearGradient id="gradient_9" gradientUnits="userSpaceOnUse" x1="174.82632" y1="208.89264" x2="174.69048" y2="206.63646"><stop offset="0" stop-color="#7D6464"/><stop offset="1" stop-color="#6C667D"/></linearGradient></defs><path fill="url(#gradient_9)" d="M162.454 206.646C170.113 207.772 183.605 207.951 191.289 206.682L192.636 206.856C191.919 207.42 186.971 206.975 185.832 208.07C186.512 208.46 189.435 207.995 189.7 208.614C180.485 208.919 174.007 209.337 164.831 208.22C164.067 207.75 163.213 207.15 162.454 206.646Z"/><defs><linearGradient id="gradient_10" gradientUnits="userSpaceOnUse" x1="249.00517" y1="125.31856" x2="246.60199" y2="127.24356"><stop offset="0" stop-color="#897573"/><stop offset="1" stop-color="#686A88"/></linearGradient></defs><path fill="url(#gradient_10)" d="M237.733 119.335C240.273 119.071 245.422 121.48 247.393 123.083C250.486 125.599 253.404 132.571 253.702 136.493C251.129 133.497 250.327 128.484 247.693 125.425C245.09 122.401 241.414 120.658 237.733 119.335Z"/><path fill="#89716E" d="M178.482 151.922C179.415 155.975 180.653 163.616 182.009 167.104C181.399 167.045 180.66 166.915 180.394 166.32C179.13 163.485 177.734 154.758 178.482 151.922Z"/><path fill="#89716E" d="M264.392 149.757C267.903 151.304 266.572 156.864 265.068 159.517C264.558 159.183 264.513 159.193 263.897 159.097C265.6 155.375 265.409 153.534 264.392 149.757Z"/><path fill="#747BA6" d="M160.585 205.944L162.454 206.646C163.213 207.15 164.067 207.75 164.831 208.22C162.124 208.343 162.694 209.213 160.413 210.109C159.866 209.219 160.691 208.188 159.704 206.774L160.585 205.944Z"/><path fill="#918085" d="M185.023 175.339C185.746 176.881 187.975 181.362 188.448 182.756C185.267 182.539 184.174 177.976 185.023 175.339Z"/><path fill="#78788B" d="M156.608 204.26C155.998 202.394 154.612 196.923 157.365 196.492C156.308 198.954 156.609 201.765 157.49 204.235C158.558 204.983 159.308 205.54 160.585 205.944L159.704 206.774C158.692 205.887 157.665 205.09 156.608 204.26Z"/><path fill="#010001" d="M276.641 73.5048C278.847 73.546 280.826 73.8346 283.003 74.1179C280.93 79.5686 278.889 85.852 276.536 91.0696C274.601 91.0563 273.261 91.0072 271.341 90.8079C270.647 88.8099 268.01 79.7991 266.157 79.4729C264.754 80.6604 265.207 87.9125 265.222 90.0381L265.168 90.3878C264.115 91.1599 260.285 90.7864 258.776 90.7171C258.617 87.1957 258.758 83.326 258.824 79.7711L255.233 79.6743C254.851 77.4446 254.826 76.1354 254.985 73.9099C260.009 73.5487 267.092 73.7079 272.188 73.7817C273.008 76.459 273.582 78.1504 274.031 80.9314C274.763 78.1707 275.571 76.1067 276.641 73.5048Z"/><path fill="#E5E5E4" d="M274.186 85.3903C274.95 83.0574 276.801 75.6234 278.937 74.9274C280.571 75.7335 279.734 77.498 279.292 78.8083C278.285 81.33 276.628 87.9918 274.717 89.1579C274.124 89.2143 273.704 89.2894 273.196 88.7969C271.441 87.096 268.342 77.1489 268.079 75.1398C269.656 75.2691 270.539 75.2973 271.274 76.8345C272.526 79.4515 273.307 82.6132 274.186 85.3903Z"/><path fill="#E5E5E4" d="M257.051 75.3592C259.073 75.1795 265.719 74.7821 267.023 76.2719C267.104 77.0844 267.195 76.8079 266.759 77.3518C265.817 77.8279 264.454 77.7588 263.365 77.7927L263.248 86.6624C263.254 87.2104 263.356 88.7363 262.96 89.0454C262.38 89.4981 261.144 89.1403 260.617 88.7106C260.308 87.1628 260.483 79.8295 260.49 77.8775C259.034 77.8067 257.097 78.0237 256.212 76.7959C256.428 75.8395 256.341 76.1353 257.051 75.3592Z"/><path fill="#395074" d="M189.39 17.3208C194.512 17.0739 195.335 23.4575 190.292 25.0653C189.637 25.0571 188.155 25.0687 187.68 24.7052C184.282 22.1086 185.418 18.1918 189.39 17.3208Z"/></svg>